<svg width="16" height="16" viewBox="0 0 16 16" fill="none" xmlns="http://www.w3.org/2000/svg">
<g clip-path="url(#clip0_4015_166)">
<path d="M7.99992 8.00016H7.49992C7.49992 8.21538 7.63763 8.40645 7.8418 8.4745L7.99992 8.00016ZM8.49992 4.66683C8.49992 4.39069 8.27606 4.16683 7.99992 4.16683C7.72378 4.16683 7.49992 4.39069 7.49992 4.66683H8.49992ZM9.8418 9.14117C10.1038 9.22849 10.3869 9.08691 10.4743 8.82494C10.5616 8.56297 10.42 8.27981 10.158 8.19249L9.8418 9.14117ZM8.49992 8.00016V4.66683H7.49992V8.00016H8.49992ZM7.8418 8.4745L9.8418 9.14117L10.158 8.19249L8.15803 7.52582L7.8418 8.4745ZM14.1666 8.00016C14.1666 11.4059 11.4057 14.1668 7.99992 14.1668V15.1668C11.958 15.1668 15.1666 11.9582 15.1666 8.00016H14.1666ZM7.99992 14.1668C4.59416 14.1668 1.83325 11.4059 1.83325 8.00016H0.833252C0.833252 11.9582 4.04188 15.1668 7.99992 15.1668V14.1668ZM1.83325 8.00016C1.83325 4.59441 4.59416 1.8335 7.99992 1.8335V0.833496C4.04188 0.833496 0.833252 4.04212 0.833252 8.00016H1.83325ZM7.99992 1.8335C11.4057 1.8335 14.1666 4.59441 14.1666 8.00016H15.1666C15.1666 4.04212 11.958 0.833496 7.99992 0.833496V1.8335Z" fill="#7B7695"/>
</g>
<defs>
<clipPath id="clip0_4015_166">
<rect width="16" height="16" fill="white"/>
</clipPath>
</defs>
</svg>
